<svg width="205" height="60" viewBox="0 0 205 60" fill="none" xmlns="http://www.w3.org/2000/svg">
<g clip-path="url(#clip0_180_654)">
<path d="M15.8774 51.2007L20.3158 55.6391L15.8774 59.9999L11.5166 55.6391L15.8774 51.2007Z" fill="white"/>
<path d="M31.0851 51.2007L35.5235 55.6391L31.0851 59.9999L26.7242 55.6391L31.0851 51.2007Z" fill="white"/>
<path d="M57.3929 37.7201C57.6848 36.0501 57.8339 34.3311 57.8237 32.5753C57.7298 16.7674 44.8209 3.89113 29.0129 3.83805C13.0253 3.78497 0 16.7755 0 32.7509C0 40.1659 2.80717 46.9338 7.41298 52.0561C7.47627 52.1275 7.58447 52.1357 7.65797 52.0785C7.92541 51.8703 8.51135 51.3865 9.17282 50.8414L16.8328 44.8166C17.6474 46.7214 18.8662 48.465 20.475 49.9124C20.769 50.1758 23.468 52.4032 23.8191 52.0969C23.9702 51.9663 24.1213 51.8336 24.2703 51.7029C26.7467 49.5409 29.36 47.4625 31.7221 45.1862C31.52 45.3801 33.3104 47.6687 33.5187 47.9035C34.3414 48.8222 35.4377 49.6736 36.5422 50.2105C40.3947 52.0847 46.2295 52.446 49.8207 50.1819C53.177 48.0668 55.1696 45.3781 56.6334 41.0724C56.7906 40.613 56.9376 39.8638 57.0785 39.1533C57.0867 39.1533 57.0948 39.1533 57.105 39.1533C57.2132 38.6817 57.3071 38.204 57.3909 37.7222C57.3909 37.7222 57.3909 37.7222 57.3909 37.7201H57.3929ZM27.4 44.8697C25.926 45.9375 24.1233 43.2977 23.619 42.3137C22.6411 40.4048 22.5105 38.0019 22.9902 35.8786C23.6987 32.7407 26.5834 31.2116 28.9271 29.3762C29.1436 29.2067 29.8969 28.7555 29.8969 28.4268V36.1175C29.8969 38.5265 30.146 40.613 30.7299 42.4607C30.7299 42.4607 27.4021 44.8697 27.4 44.8697ZM47.0543 43.7122C44.6269 45.4985 41.1338 45.3577 38.8268 43.4263C36.479 41.4603 36.4585 38.8226 36.4585 36.0154C36.4585 35.8235 36.4585 35.6867 36.4585 35.5887C36.4585 35.5948 36.4585 35.5989 36.4585 35.603C36.4585 35.5826 36.4585 35.4254 36.4585 34.964V25.8606H33.5595C33.6861 25.6666 34.0719 25.2787 34.8477 24.1171C36.5361 21.5855 36.5116 17.7106 35.2948 14.8585C34.9498 14.0521 34.4864 12.8455 33.7902 12.2759C33.878 14.0766 33.6473 15.7629 32.5285 17.2717C29.756 21.069 27.1857 21.7162 23.5353 24.6152C19.4685 27.845 16.8471 31.1911 15.9039 36.2216C15.5405 38.157 15.565 40.1128 15.9488 41.987L11.1552 45.8231C8.4501 42.1605 6.84542 37.6425 6.84542 32.7509C6.84542 20.3667 17.1003 10.3323 29.5641 10.6916C41.3604 11.0326 50.8578 20.7178 50.9803 32.5182C51.0007 34.4842 50.7578 36.3931 50.2923 38.2121C49.4675 40.5273 48.8775 42.3708 47.0564 43.7101L47.0543 43.7122Z" fill="white"/>
<path d="M68.1214 45.5559C69.7771 45.5559 71.0572 45.9948 71.9616 46.8748C72.866 47.7547 73.3172 49.0899 73.3172 50.8803V57.7258H71.1613L70.2732 56.5845H70.1466C69.9608 56.854 69.724 57.0908 69.4361 57.295C69.1993 57.4808 68.887 57.6421 68.497 57.7768C68.1071 57.9116 67.6436 57.9789 67.1026 57.9789C65.7001 57.9789 64.6303 57.6625 63.8953 57.0275C63.1603 56.3947 62.7928 55.5699 62.7928 54.5552C62.7928 53.9468 62.8949 53.4099 63.097 52.9444C63.2992 52.4789 63.6585 52.0828 64.175 51.7521C64.6915 51.4214 65.3877 51.1723 66.2676 51.0049C67.1455 50.8354 68.2704 50.7517 69.6403 50.7517H70.02C70.02 49.2308 69.8077 48.1753 69.3851 47.5832C68.9625 46.9911 68.3704 46.6951 67.611 46.6951C67.3231 46.6951 67.0495 46.7237 66.7862 46.7849C66.5249 46.8441 66.2839 46.9585 66.0635 47.1279C65.843 47.2974 65.649 47.5301 65.4796 47.8261C65.3101 48.1222 65.1754 48.506 65.0733 48.9796H63.6789C63.6789 48.5407 63.7075 48.0916 63.7667 47.6363C63.8259 47.179 64.0076 46.7829 64.3118 46.444C64.616 46.1071 65.1182 45.8744 65.8205 45.7458C66.5208 45.6192 67.2864 45.5559 68.1152 45.5559H68.1214ZM70.0241 51.893H69.6444C68.4276 51.893 67.5538 52.1155 67.021 52.5585C66.4881 53.0036 66.2227 53.6773 66.2227 54.5817C66.2227 55.2983 66.3697 55.8414 66.6657 56.2089C66.9618 56.5764 67.3639 56.7601 67.8703 56.7601C68.2582 56.7601 68.5848 56.6744 68.8461 56.5049C69.1075 56.3334 69.332 56.1456 69.5178 55.9414C69.7199 55.7026 69.8894 55.4208 70.0241 55.0962V51.893Z" fill="white"/>
<path d="M88.9884 48.7246C88.5494 47.7957 88.1677 47.1362 87.8471 46.7463C87.5266 46.3584 87.153 46.1461 86.7324 46.1134V45.6071C86.7998 45.6071 86.9447 45.5989 87.1632 45.5826C87.3816 45.5663 87.5511 45.5581 87.6695 45.5581C88.1779 45.5581 88.6597 45.601 89.1149 45.6847C89.5723 45.7684 90.003 45.9256 90.4073 46.1542C90.8135 46.3829 91.1933 46.7034 91.5485 47.1179C91.9037 47.5323 92.2324 48.0692 92.5366 48.7287L94.7681 53.5958L98.2163 45.8113H99.5842L94.1842 57.9811H93.2716L88.9863 48.7266L88.9884 48.7246Z" fill="white"/>
<path d="M119.361 56.8379C120.239 56.8379 120.953 56.6358 121.503 56.2295C122.052 55.8233 122.546 55.3251 122.987 54.7331L123.773 55.3169C123.587 55.6048 123.362 55.9049 123.101 56.2173C122.84 56.5296 122.517 56.8175 122.138 57.0788C121.758 57.3422 121.309 57.5566 120.794 57.726C120.278 57.8955 119.675 57.9792 118.981 57.9792C118.085 57.9792 117.279 57.822 116.56 57.5096C115.841 57.1972 115.229 56.7624 114.723 56.203C114.216 55.6456 113.826 54.9903 113.557 54.239C113.285 53.4877 113.151 52.6629 113.151 51.7666C113.151 50.752 113.293 49.8578 113.581 49.0799C113.869 48.3021 114.261 47.6569 114.759 47.1404C115.257 46.6259 115.845 46.2319 116.521 45.9624C117.197 45.6929 117.932 45.5562 118.726 45.5562C119.52 45.5562 120.255 45.6786 120.933 45.9236C121.611 46.1686 122.197 46.5116 122.695 46.9506C123.193 47.3895 123.587 47.9223 123.873 48.5491C124.161 49.1738 124.304 49.868 124.304 50.6274C124.304 50.8132 124.3 51.0031 124.291 51.197C124.283 51.391 124.271 51.5645 124.253 51.7176C124.234 51.9034 124.218 52.0729 124.202 52.224H116.57C116.57 53.898 116.827 55.0842 117.344 55.7865C117.86 56.4888 118.532 56.8379 119.359 56.8379H119.361ZM120.882 51.0827C120.882 50.2375 120.827 49.5352 120.717 48.9778C120.606 48.4205 120.459 47.9734 120.274 47.6345C120.088 47.2956 119.863 47.0547 119.602 46.9118C119.339 46.7689 119.049 46.6954 118.726 46.6954C118.438 46.6954 118.165 46.7668 117.903 46.9118C117.64 47.0547 117.413 47.2956 117.219 47.6345C117.025 47.9734 116.868 48.4205 116.75 48.9778C116.631 49.5352 116.572 50.2375 116.572 51.0827H120.882Z" fill="white"/>
<path d="M145.273 46.7729C144.732 46.7729 144.262 46.8485 143.866 47.0016C143.47 47.1547 143.16 47.3405 142.941 47.561C142.958 47.6631 142.982 47.7815 143.017 47.9183C143.051 48.0367 143.076 48.1816 143.092 48.3511C143.109 48.5205 143.117 48.7084 143.117 48.9125V57.726H139.822V49.1065C139.822 48.7349 139.801 48.3919 139.758 48.0795C139.715 47.7672 139.636 47.4957 139.517 47.269C139.399 47.0404 139.221 46.8668 138.985 46.7484C138.748 46.63 138.444 46.5708 138.072 46.5708H137.819V45.8093H140.328C140.902 45.8093 141.355 45.8808 141.684 46.0257C142.014 46.1686 142.272 46.4095 142.457 46.7484C142.608 46.6137 142.79 46.4749 143.002 46.3299C143.215 46.185 143.468 46.0604 143.762 45.9502C144.058 45.8399 144.399 45.7481 144.789 45.6705C145.177 45.5949 145.634 45.5562 146.159 45.5562C147.747 45.5562 148.947 45.9236 149.758 46.6586C150.569 47.3936 150.975 48.5818 150.975 50.2212V57.726H147.68V50.162C147.68 48.9227 147.451 48.0469 146.996 47.5385C146.538 47.0302 145.965 46.775 145.271 46.775L145.273 46.7729Z" fill="white"/>
<path d="M166.822 49.1043C166.822 48.3428 166.715 47.7303 166.505 47.2669C166.293 46.8014 165.807 46.5686 165.047 46.5686H164.794V45.8071H167.836C168.275 45.8071 168.643 45.8623 168.939 45.9725C169.235 46.0827 169.472 46.2644 169.649 46.5176C169.827 46.7708 169.949 47.1097 170.017 47.5323C170.084 47.9549 170.119 48.4796 170.119 49.1043V53.3385C170.119 54.641 170.305 55.5495 170.676 56.064C171.048 56.5805 171.581 56.8378 172.273 56.8378C172.661 56.8378 172.995 56.7541 173.275 56.5846C173.553 56.4152 173.785 56.2294 173.973 56.0273C174.192 55.7905 174.388 55.5128 174.557 55.1902V45.8092H177.852V57.7259H175.696L174.808 56.5846H174.682C174.429 56.8541 174.149 57.0909 173.845 57.2951C173.573 57.4809 173.244 57.6422 172.857 57.7769C172.467 57.9117 172.019 57.979 171.513 57.979C169.925 57.979 168.745 57.6115 167.977 56.8766C167.207 56.1416 166.824 54.9534 166.824 53.314V49.1063L166.822 49.1043Z" fill="white"/>
<path d="M199.199 56.8379C200.077 56.8379 200.791 56.6358 201.341 56.2295C201.89 55.8233 202.384 55.3251 202.823 54.7331L203.609 55.3169C203.423 55.6048 203.198 55.9049 202.937 56.2173C202.674 56.5296 202.353 56.8175 201.973 57.0788C201.594 57.3422 201.145 57.5566 200.63 57.726C200.114 57.8955 199.509 57.9792 198.817 57.9792C197.921 57.9792 197.115 57.822 196.396 57.5096C195.677 57.1972 195.065 56.7624 194.558 56.203C194.05 55.6456 193.662 54.9903 193.393 54.239C193.123 53.4877 192.986 52.6629 192.986 51.7666C192.986 50.752 193.129 49.8578 193.417 49.0799C193.705 48.3021 194.097 47.6569 194.595 47.1404C195.093 46.6259 195.681 46.2319 196.357 45.9624C197.033 45.6929 197.768 45.5562 198.564 45.5562C199.36 45.5562 200.093 45.6786 200.769 45.9236C201.445 46.1686 202.033 46.5116 202.531 46.9506C203.029 47.3895 203.423 47.9223 203.709 48.5491C203.997 49.1738 204.14 49.868 204.14 50.6274C204.14 50.8132 204.136 51.0031 204.127 51.197C204.119 51.391 204.105 51.5645 204.089 51.7176C204.072 51.9034 204.054 52.0729 204.038 52.224H196.406C196.406 53.898 196.663 55.0842 197.18 55.7865C197.694 56.4888 198.366 56.8379 199.195 56.8379H199.199ZM200.72 51.0827C200.72 50.2375 200.665 49.5352 200.555 48.9778C200.444 48.4205 200.297 47.9734 200.112 47.6345C199.926 47.2956 199.701 47.0547 199.44 46.9118C199.179 46.7689 198.887 46.6954 198.566 46.6954C198.278 46.6954 198.005 46.7668 197.741 46.9118C197.48 47.0547 197.251 47.2956 197.057 47.6345C196.863 47.9734 196.706 48.4205 196.588 48.9778C196.469 49.5352 196.41 50.2375 196.41 51.0827H200.72Z" fill="white"/>
<path d="M135.02 10.8325C138.952 10.8325 141.992 11.8758 144.138 13.9623C146.283 16.0488 147.357 19.2193 147.357 23.4719V39.7229H142.241L140.134 37.0137H139.834C139.391 37.6568 138.829 38.2183 138.15 38.698C137.588 39.1411 136.845 39.5208 135.922 39.8413C134.999 40.1619 133.895 40.3231 132.613 40.3231C129.281 40.3231 126.745 39.5718 125 38.0672C123.254 36.5626 122.382 34.6067 122.382 32.1997C122.382 30.7543 122.623 29.4824 123.105 28.3779C123.587 27.2754 124.438 26.3322 125.663 25.5503C126.886 24.7683 128.542 24.1763 130.628 23.7741C132.715 23.3739 135.383 23.1718 138.633 23.1718H139.536C139.536 19.5603 139.034 17.0532 138.031 15.6486C137.029 14.244 135.624 13.5417 133.817 13.5417C133.135 13.5417 132.482 13.6132 131.862 13.752C131.239 13.8928 130.667 14.1644 130.147 14.5645C129.624 14.9667 129.163 15.5179 128.762 16.2202C128.36 16.9226 128.04 17.8351 127.799 18.958H124.489C124.489 17.9148 124.559 16.8511 124.7 15.7691C124.841 14.685 125.271 13.7438 125.994 12.9394C126.717 12.1371 127.909 11.5859 129.575 11.2837C131.239 10.9816 133.056 10.8325 135.022 10.8325H135.02ZM139.534 25.879H138.631C135.743 25.879 133.666 26.4057 132.403 27.4612C131.139 28.5146 130.506 30.1173 130.506 32.265C130.506 33.9677 130.857 35.2559 131.559 36.1277C132.262 36.9995 133.215 37.4343 134.418 37.4343C135.34 37.4343 136.112 37.2322 136.735 36.828C137.357 36.4217 137.888 35.9746 138.329 35.4887C138.811 34.9211 139.211 34.2535 139.534 33.4818V25.879Z" fill="white"/>
<path d="M165.715 43.6346C165.113 45.2801 164.472 46.6235 163.79 47.6667C163.108 48.71 162.385 49.5327 161.624 50.135C160.86 50.7372 160.029 51.1578 159.127 51.3987C158.225 51.6396 157.251 51.7601 156.207 51.7601H153.8V49.6532C154.844 49.6532 155.795 49.5633 156.659 49.3816C157.52 49.1999 158.314 48.8896 159.035 48.4486C159.758 48.0056 160.399 47.4156 160.96 46.6725C161.522 45.9293 162.022 44.9759 162.465 43.8142L163.729 40.5641L152.896 16.8511C151.571 13.9235 149.707 12.3167 147.298 12.0371V10.8325H152.594C154.399 10.8325 155.985 11.2633 157.349 12.1269C158.712 12.9905 159.735 14.1644 160.417 15.6486L167.338 30.8155L174.682 11.4348H177.871L165.713 43.6346H165.715Z" fill="white"/>
<path d="M191.353 10.8325C195.285 10.8325 198.325 11.8758 200.471 13.9623C202.617 16.0488 203.69 19.2193 203.69 23.4719V39.7229H198.574L196.467 37.0137H196.167C195.724 37.6568 195.163 38.2183 194.483 38.698C193.922 39.1411 193.178 39.5208 192.256 39.8413C191.333 40.1619 190.228 40.3231 188.946 40.3231C185.614 40.3231 183.079 39.5718 181.333 38.0672C179.588 36.5626 178.716 34.6067 178.716 32.1997C178.716 30.7543 178.957 29.4824 179.439 28.3779C179.92 27.2754 180.772 26.3322 181.997 25.5503C183.22 24.7683 184.875 24.1763 186.962 23.7741C189.048 23.3739 191.717 23.1718 194.967 23.1718H195.869C195.869 19.5603 195.367 17.0532 194.365 15.6486C193.362 14.244 191.958 13.5417 190.151 13.5417C189.469 13.5417 188.816 13.6132 188.195 13.752C187.572 13.8928 187.001 14.1644 186.48 14.5645C185.957 14.9667 185.496 15.5179 185.096 16.2202C184.694 16.9226 184.373 17.8351 184.132 18.958H180.823C180.823 17.9148 180.892 16.8511 181.033 15.7691C181.174 14.685 181.605 13.7438 182.327 12.9394C183.05 12.1371 184.242 11.5859 185.908 11.2837C187.572 10.9816 189.389 10.8325 191.355 10.8325H191.353ZM195.867 25.879H194.965C192.076 25.879 190 26.4057 188.736 27.4612C187.472 28.5146 186.839 30.1173 186.839 32.265C186.839 33.9677 187.19 35.2559 187.893 36.1277C188.595 36.9995 189.548 37.4343 190.751 37.4343C191.674 37.4343 192.445 37.2322 193.068 36.828C193.691 36.4217 194.222 35.9746 194.663 35.4887C195.144 34.9211 195.545 34.2535 195.867 33.4818V25.879Z" fill="white"/>
<path d="M82.4799 39.723H87.5961V30.3522L80.7323 37.4773L82.4799 39.7251V39.723ZM119.132 19.8013C118.61 17.9965 117.807 16.4306 116.725 15.1077C115.641 13.7827 114.288 12.7415 112.663 11.978C111.038 11.2164 109.141 10.8347 106.975 10.8347C105.97 10.8347 105.088 10.9347 104.327 11.1348C103.563 11.3369 102.902 11.537 102.34 11.737C101.697 12.0188 101.136 12.3189 100.656 12.6394V7.82538C100.656 6.34115 100.574 5.09783 100.415 4.09337C100.254 3.09095 99.964 2.28861 99.5414 1.68635C99.1208 1.08408 98.5573 0.653306 97.8571 0.391983C97.1548 0.130661 96.281 0 95.2397 0H88.0166V1.80476H88.6189C90.4237 1.80476 91.5772 2.35598 92.0794 3.46048C92.5796 4.56497 92.8307 6.01858 92.8307 7.82333V21.3263L87.5961 26.761V23.472C87.5961 19.2194 86.5222 16.0489 84.3765 13.9624C82.2288 11.8759 79.1909 10.8326 75.2588 10.8326C73.2928 10.8326 71.4758 10.9837 69.8119 11.2838C68.1459 11.5839 66.9537 12.1372 66.2309 12.9395C65.5082 13.7419 65.0774 14.6851 64.9366 15.7692C64.7957 16.8532 64.7263 17.9149 64.7263 18.9581H68.0357C68.2766 17.8352 68.5971 16.9227 68.9993 16.2204C69.3995 15.518 69.8609 14.9668 70.3835 14.5646C70.9041 14.1645 71.4758 13.893 72.0984 13.7521C72.7191 13.6112 73.3724 13.5418 74.0543 13.5418C75.859 13.5418 77.2636 14.2441 78.2681 15.6487C79.2705 17.0533 79.7727 19.5604 79.7727 23.1719H78.8704C75.6202 23.1719 72.9518 23.372 70.8653 23.7742C68.7788 24.1743 67.1231 24.7664 65.9002 25.5504C64.6753 26.3323 63.8239 27.2755 63.3421 28.378C62.8603 29.4825 62.6194 30.7544 62.6194 32.1998C62.6194 34.6068 63.4911 36.5627 65.2367 38.0673C66.9822 39.5719 69.5199 40.3232 72.8497 40.3232C74.1339 40.3232 75.2364 40.162 76.1591 39.8414C77.0819 39.5209 77.823 39.1391 78.3865 38.6982C78.8806 38.349 79.3032 37.953 79.6707 37.5181L79.6829 37.5304L100.915 15.4895L100.919 15.4936C101.04 15.4098 101.126 15.2914 101.24 15.2016C101.473 15.0158 101.699 14.8198 101.94 14.6422C102.447 14.2706 103.006 14.0277 103.61 13.8378C104.253 13.6378 104.952 13.5581 105.623 13.5438C105.672 13.5438 105.723 13.5438 105.772 13.5438C106.895 13.5438 107.838 13.844 108.602 14.4462C109.363 15.0485 109.986 15.8896 110.468 16.9737C110.95 18.0578 111.291 19.3317 111.491 20.7955C111.691 22.2614 111.791 23.8559 111.791 25.581C111.791 27.3061 111.691 28.9006 111.491 30.3665C111.289 31.8323 110.958 33.1042 110.499 34.1883C110.037 35.2724 109.445 36.1135 108.722 36.7158C108 37.318 107.118 37.6182 106.074 37.6182C105.152 37.6182 104.349 37.4181 103.667 37.0159C102.986 36.6157 102.424 36.1727 101.983 35.6909C101.46 35.1295 101.019 34.468 100.658 33.7044V16.794L92.8348 24.9154V39.721H97.951L100.058 37.0118H100.358C100.758 37.6549 101.299 38.2163 101.983 38.6961C102.545 39.1391 103.267 39.5189 104.149 39.8394C105.031 40.1599 106.074 40.3212 107.279 40.3212C109.365 40.3212 111.201 39.9394 112.785 39.1779C114.369 38.4164 115.694 37.3732 116.758 36.0482C117.82 34.7232 118.614 33.1593 119.134 31.3546C119.655 29.5498 119.916 27.6226 119.916 25.5769C119.916 23.5313 119.655 21.604 119.134 19.7992L119.132 19.8013ZM79.7707 33.878C79.4502 34.6497 79.048 34.9212 78.5662 35.4888C78.1231 35.9767 77.5923 36.4218 76.9717 36.8281C76.349 37.2323 75.5773 37.4344 74.6545 37.4344C73.45 37.4344 72.4966 36.9996 71.7963 36.1278C71.094 35.256 70.7428 33.9678 70.7428 32.2651C70.7428 30.1174 71.3757 28.5147 72.6395 27.4613C73.9032 26.4078 75.9795 25.8791 78.8683 25.8791H79.7707V33.878Z" fill="white"/>
</g>
<defs>
<clipPath id="clip0_180_654">
<rect width="204.142" height="60" fill="white"/>
</clipPath>
</defs>
</svg>
