<svg width="145" height="48" viewBox="0 0 145 48" fill="none" xmlns="http://www.w3.org/2000/svg">
<g clip-path="url(#clip0_106_917)" filter="url(#filter0_d_106_917)">
<path d="M14.5849 34.1339L17.5439 37.0928L14.5849 40L11.6777 37.0928L14.5849 34.1339Z" fill="#1A1A1A"/>
<path d="M24.7234 34.1339L27.6823 37.0928L24.7234 40L21.8162 37.0928L24.7234 34.1339Z" fill="#1A1A1A"/>
<path d="M42.2619 25.1468C42.4566 24.0335 42.5559 22.8875 42.5491 21.7169C42.4865 11.1783 33.8806 2.59415 23.3419 2.55876C12.6835 2.52338 4 11.1838 4 21.834C4 26.7773 5.87145 31.2892 8.94198 34.7041C8.98418 34.7518 9.05631 34.7572 9.10531 34.7191C9.28361 34.5803 9.67423 34.2577 10.1152 33.8943L15.2219 29.8778C15.7649 31.1477 16.5775 32.31 17.65 33.275C17.846 33.4506 19.6453 34.9355 19.8794 34.7313C19.9801 34.6442 20.0808 34.5558 20.1802 34.4687C21.8312 33.0273 23.5733 31.6417 25.148 30.1242C25.0133 30.2535 26.2069 31.7792 26.3458 31.9357C26.8943 32.5482 27.6252 33.1158 28.3615 33.4737C30.9298 34.7232 34.8197 34.9641 37.2138 33.4547C39.4514 32.0446 40.7797 30.2521 41.7556 27.3817C41.8604 27.0754 41.9584 26.5759 42.0523 26.1023C42.0578 26.1023 42.0632 26.1023 42.07 26.1023C42.1422 25.7879 42.2048 25.4694 42.2606 25.1482C42.2606 25.1482 42.2606 25.1482 42.2606 25.1468H42.2619ZM22.2667 29.9132C21.284 30.625 20.0822 28.8652 19.746 28.2092C19.0941 26.9366 19.007 25.3346 19.3268 23.9191C19.7991 21.8272 21.7223 20.8078 23.2848 19.5842C23.429 19.4712 23.9313 19.1704 23.9313 18.9513V24.0784C23.9313 25.6844 24.0973 27.0754 24.4866 28.3072C24.4866 28.3072 22.2681 29.9132 22.2667 29.9132ZM35.3696 29.1415C33.7513 30.3324 31.4225 30.2385 29.8845 28.9509C28.3193 27.6403 28.3057 25.8818 28.3057 24.0103C28.3057 23.8824 28.3057 23.7912 28.3057 23.7259C28.3057 23.7299 28.3057 23.7327 28.3057 23.7354C28.3057 23.7218 28.3057 23.617 28.3057 23.3094V17.2404H26.373C26.4574 17.1111 26.7146 16.8525 27.2318 16.0781C28.3574 14.3904 28.3411 11.8071 27.5299 9.90573C27.2999 9.36811 26.9909 8.56373 26.5268 8.184C26.5853 9.38445 26.4315 10.5087 25.6857 11.5145C23.8373 14.0461 22.1238 14.4775 19.6902 16.4102C16.979 18.5634 15.2314 20.7942 14.6026 24.1478C14.3603 25.4381 14.3767 26.742 14.6325 27.9914L11.4368 30.5488C9.6334 28.1071 8.56361 25.0951 8.56361 21.834C8.56361 13.5778 15.4002 6.88827 23.7094 7.12782C31.5736 7.35511 37.9052 13.812 37.9869 21.6788C38.0005 22.9895 37.8385 24.2621 37.5282 25.4748C36.9783 27.0183 36.585 28.2473 35.3709 29.1401L35.3696 29.1415Z" fill="#1A1A1A"/>
<path d="M49.4143 30.3705C50.5181 30.3705 51.3715 30.6632 51.9744 31.2498C52.5774 31.8364 52.8782 32.7265 52.8782 33.9202V38.4838H51.4409L50.8488 37.723H50.7644C50.6406 37.9026 50.4827 38.0605 50.2908 38.1966C50.1329 38.3205 49.9247 38.428 49.6647 38.5178C49.4048 38.6076 49.0958 38.6526 48.7351 38.6526C47.8001 38.6526 47.0869 38.4416 46.5969 38.0183C46.1069 37.5964 45.8619 37.0465 45.8619 36.3701C45.8619 35.9645 45.93 35.6065 46.0647 35.2962C46.1995 34.9859 46.439 34.7218 46.7834 34.5013C47.1277 34.2809 47.5918 34.1148 48.1784 34.0032C48.7637 33.8902 49.5136 33.8344 50.4269 33.8344H50.6801C50.6801 32.8204 50.5385 32.1168 50.2568 31.7221C49.975 31.3274 49.5803 31.13 49.074 31.13C48.8821 31.13 48.6997 31.1491 48.5242 31.1899C48.3499 31.2294 48.1893 31.3056 48.0423 31.4186C47.8954 31.5315 47.7661 31.6867 47.6531 31.884C47.5401 32.0814 47.4503 32.3373 47.3822 32.653H46.4526C46.4526 32.3604 46.4717 32.061 46.5112 31.7575C46.5506 31.4526 46.6718 31.1885 46.8746 30.9626C47.0774 30.738 47.4122 30.5829 47.8804 30.4971C48.3472 30.4127 48.8576 30.3705 49.4102 30.3705H49.4143ZM50.6828 34.5953H50.4296C49.6184 34.5953 49.0359 34.7436 48.6807 35.039C48.3254 35.3357 48.1485 35.7848 48.1485 36.3878C48.1485 36.8655 48.2465 37.2275 48.4439 37.4725C48.6412 37.7175 48.9093 37.84 49.2469 37.84C49.5055 37.84 49.7232 37.7828 49.8975 37.6699C50.0717 37.5555 50.2214 37.4303 50.3452 37.2942C50.48 37.135 50.593 36.9472 50.6828 36.7307V34.5953Z" fill="#1A1A1A"/>
<path d="M63.3256 32.4829C63.0329 31.8636 62.7784 31.424 62.5647 31.164C62.351 30.9054 62.102 30.7639 61.8216 30.7421V30.4046C61.8665 30.4046 61.9631 30.3991 62.1088 30.3882C62.2544 30.3773 62.3674 30.3719 62.4463 30.3719C62.7852 30.3719 63.1064 30.4005 63.4099 30.4563C63.7148 30.5121 64.002 30.6169 64.2715 30.7693C64.5423 30.9218 64.7955 31.1354 65.0323 31.4117C65.2691 31.688 65.4883 32.046 65.6911 32.4856L67.1787 35.7304L69.4775 30.5407H70.3894L66.7894 38.6539H66.181L63.3242 32.4842L63.3256 32.4829Z" fill="#1A1A1A"/>
<path d="M83.574 37.8917C84.1592 37.8917 84.6356 37.757 85.0017 37.4861C85.3679 37.2153 85.6972 36.8832 85.9912 36.4885L86.5152 36.8777C86.3914 37.0697 86.2416 37.2697 86.0674 37.478C85.8932 37.6862 85.6782 37.8781 85.425 38.0523C85.1719 38.2279 84.8724 38.3708 84.5294 38.4838C84.1851 38.5968 83.7836 38.6526 83.3208 38.6526C82.7233 38.6526 82.1857 38.5478 81.7066 38.3395C81.2275 38.1313 80.8192 37.8414 80.4817 37.4684C80.1441 37.0969 79.8842 36.66 79.7045 36.1591C79.5235 35.6582 79.4337 35.1084 79.4337 34.5109C79.4337 33.8344 79.5289 33.2383 79.7208 32.7197C79.9128 32.2012 80.1741 31.7711 80.5062 31.4267C80.8383 31.0837 81.2302 30.8211 81.6808 30.6414C82.1313 30.4617 82.6212 30.3705 83.1507 30.3705C83.6801 30.3705 84.1701 30.4522 84.622 30.6155C85.0739 30.7789 85.4645 31.0075 85.7966 31.3001C86.1287 31.5928 86.3914 31.948 86.5819 32.3658C86.7738 32.7823 86.8691 33.2451 86.8691 33.7514C86.8691 33.8753 86.8664 34.0018 86.8609 34.1311C86.8555 34.2604 86.8473 34.3761 86.8351 34.4782C86.8228 34.6021 86.8119 34.715 86.801 34.8157H81.7134C81.7134 35.9318 81.8849 36.7226 82.2293 37.1908C82.5736 37.659 83.0214 37.8917 83.5726 37.8917H83.574ZM84.588 34.0549C84.588 33.4914 84.5512 33.0232 84.4777 32.6517C84.4042 32.2801 84.3062 31.982 84.1824 31.7561C84.0585 31.5302 83.9088 31.3696 83.7346 31.2743C83.559 31.179 83.3657 31.13 83.1507 31.13C82.9588 31.13 82.7764 31.1776 82.6022 31.2743C82.4266 31.3696 82.2755 31.5302 82.1462 31.7561C82.0169 31.982 81.9121 32.2801 81.8332 32.6517C81.7543 33.0232 81.7148 33.4914 81.7148 34.0549H84.588Z" fill="#1A1A1A"/>
<path d="M100.848 31.1817C100.488 31.1817 100.175 31.2321 99.9107 31.3342C99.6467 31.4362 99.4398 31.5601 99.2942 31.7071C99.305 31.7752 99.3214 31.8541 99.3445 31.9453C99.3677 32.0242 99.384 32.1209 99.3949 32.2338C99.4058 32.3468 99.4112 32.472 99.4112 32.6081V38.4838H97.2145V32.7374C97.2145 32.4897 97.2009 32.261 97.1723 32.0528C97.1437 31.8446 97.0906 31.6635 97.0117 31.5125C96.9327 31.36 96.8143 31.2443 96.6564 31.1654C96.4986 31.0865 96.2958 31.047 96.048 31.047H95.8793V30.5393H97.552C97.9345 30.5393 98.2366 30.587 98.4557 30.6836C98.6762 30.7789 98.8477 30.9395 98.9716 31.1654C99.0723 31.0756 99.1934 30.983 99.335 30.8864C99.4765 30.7897 99.6453 30.7067 99.8413 30.6332C100.039 30.5597 100.266 30.4985 100.526 30.4468C100.785 30.3964 101.089 30.3705 101.439 30.3705C102.498 30.3705 103.298 30.6155 103.839 31.1055C104.379 31.5955 104.65 32.3876 104.65 33.4806V38.4838H102.453V33.4411C102.453 32.6149 102.301 32.031 101.997 31.6921C101.692 31.3532 101.31 31.1831 100.847 31.1831L100.848 31.1817Z" fill="#1A1A1A"/>
<path d="M115.214 32.7361C115.214 32.2284 115.144 31.8201 115.003 31.5111C114.862 31.2008 114.538 31.0456 114.032 31.0456H113.863V30.538H115.891C116.183 30.538 116.428 30.5747 116.626 30.6482C116.823 30.7217 116.981 30.8428 117.099 31.0116C117.218 31.1804 117.3 31.4063 117.344 31.6881C117.389 31.9698 117.412 32.3196 117.412 32.7361V35.5589C117.412 36.4272 117.536 37.0329 117.784 37.3759C118.032 37.7202 118.387 37.8917 118.848 37.8917C119.107 37.8917 119.33 37.8359 119.517 37.723C119.702 37.61 119.857 37.4861 119.982 37.3514C120.128 37.1935 120.258 37.0084 120.371 36.7934V30.5393H122.568V38.4838H121.131L120.539 37.723H120.454C120.286 37.9026 120.099 38.0605 119.896 38.1966C119.715 38.3205 119.496 38.428 119.238 38.5178C118.978 38.6077 118.68 38.6526 118.342 38.6526C117.283 38.6526 116.496 38.4076 115.985 37.9176C115.472 37.4276 115.216 36.6355 115.216 35.5426V32.7374L115.214 32.7361Z" fill="#1A1A1A"/>
<path d="M136.799 37.8917C137.385 37.8917 137.861 37.757 138.227 37.4861C138.593 37.2153 138.923 36.8832 139.215 36.4885L139.739 36.8777C139.615 37.0697 139.466 37.2697 139.291 37.478C139.116 37.6862 138.902 37.8781 138.649 38.0523C138.396 38.2279 138.096 38.3708 137.753 38.4838C137.409 38.5968 137.006 38.6526 136.545 38.6526C135.947 38.6526 135.41 38.5478 134.931 38.3395C134.452 38.1313 134.043 37.8414 133.706 37.4684C133.367 37.0969 133.108 36.66 132.929 36.1591C132.749 35.6582 132.658 35.1084 132.658 34.5109C132.658 33.8344 132.753 33.2383 132.945 32.7197C133.137 32.2012 133.398 31.7711 133.73 31.4267C134.062 31.0837 134.454 30.8211 134.905 30.6414C135.355 30.4617 135.845 30.3705 136.376 30.3705C136.907 30.3705 137.395 30.4522 137.846 30.6155C138.296 30.7789 138.688 31.0075 139.021 31.3001C139.353 31.5928 139.615 31.948 139.806 32.3658C139.998 32.7823 140.093 33.2451 140.093 33.7514C140.093 33.8753 140.09 34.0018 140.085 34.1311C140.079 34.2604 140.07 34.3761 140.059 34.4782C140.048 34.6021 140.036 34.715 140.025 34.8157H134.937C134.937 35.9318 135.109 36.7226 135.453 37.1908C135.796 37.659 136.244 37.8917 136.797 37.8917H136.799ZM137.813 34.0549C137.813 33.4914 137.777 33.0232 137.703 32.6517C137.63 32.2801 137.532 31.982 137.408 31.7561C137.284 31.5302 137.134 31.3696 136.96 31.2743C136.786 31.179 136.591 31.13 136.377 31.13C136.185 31.13 136.003 31.1776 135.828 31.2743C135.653 31.3696 135.501 31.5302 135.372 31.7561C135.242 31.982 135.137 32.2801 135.059 32.6517C134.98 33.0232 134.94 33.4914 134.94 34.0549H137.813Z" fill="#1A1A1A"/>
<path d="M94.0132 7.22174C96.6346 7.22174 98.6612 7.91724 100.092 9.30824C101.522 10.6992 102.238 12.8129 102.238 15.648V26.482H98.8273L97.4227 24.6759H97.2226C96.9273 25.1046 96.553 25.4789 96.0997 25.7988C95.7254 26.0941 95.23 26.3473 94.6148 26.5609C93.9996 26.7746 93.2633 26.8822 92.4086 26.8822C90.1873 26.8822 88.4969 26.3813 87.3332 25.3782C86.1695 24.3751 85.5883 23.0712 85.5883 21.4665C85.5883 20.5029 85.7489 19.655 86.0701 18.9186C86.3913 18.1837 86.9589 17.5549 87.7755 17.0336C88.5908 16.5123 89.6946 16.1176 91.0856 15.8495C92.4766 15.5827 94.2555 15.4479 96.4223 15.4479H97.0239C97.0239 13.0402 96.6891 11.3689 96.0208 10.4325C95.3525 9.49606 94.4161 9.02786 93.2116 9.02786C92.757 9.02786 92.3214 9.0755 91.9077 9.16805C91.4926 9.26196 91.1115 9.44298 90.7644 9.70975C90.416 9.97787 90.1084 10.3454 89.8416 10.8136C89.5735 11.2818 89.3598 11.8902 89.1992 12.6387H86.9929C86.9929 11.9432 87.0392 11.2341 87.1331 10.5128C87.227 9.79005 87.5142 9.1626 87.996 8.62635C88.4778 8.09145 89.2727 7.72397 90.3833 7.52253C91.4926 7.3211 92.7039 7.22174 94.0146 7.22174H94.0132ZM97.0225 17.2527H96.4209C94.495 17.2527 93.1109 17.6039 92.2684 18.3075C91.4259 19.0098 91.0039 20.0783 91.0039 21.5101C91.0039 22.6452 91.2381 23.504 91.7063 24.0852C92.1745 24.6664 92.8101 24.9563 93.6117 24.9563C94.2269 24.9563 94.7414 24.8215 95.1565 24.552C95.5716 24.2812 95.9255 23.9831 96.2195 23.6592C96.5407 23.2808 96.8075 22.8357 97.0225 22.3213V17.2527Z" fill="#1A1A1A"/>
<path d="M114.477 29.0898C114.075 30.1868 113.648 31.0824 113.193 31.7779C112.739 32.4734 112.257 33.0219 111.749 33.4234C111.24 33.8249 110.686 34.1053 110.085 34.2659C109.483 34.4265 108.834 34.5068 108.138 34.5068H106.534V33.1022C107.229 33.1022 107.863 33.0423 108.439 32.9211C109.013 32.8 109.543 32.5931 110.023 32.2991C110.505 32.0038 110.932 31.6105 111.307 31.115C111.681 30.6196 112.015 29.984 112.31 29.2096L113.152 27.0428L105.931 11.2341C105.047 9.28238 103.805 8.21123 102.199 8.02476V7.22174H105.729C106.932 7.22174 107.99 7.50892 108.899 8.08465C109.808 8.66037 110.49 9.44298 110.945 10.4325L115.559 20.5437L120.454 7.62325H122.58L114.475 29.0898H114.477Z" fill="#1A1A1A"/>
<path d="M131.569 7.22174C134.19 7.22174 136.217 7.91724 137.647 9.30824C139.078 10.6992 139.794 12.8129 139.794 15.648V26.482H136.383L134.978 24.6759H134.778C134.483 25.1046 134.109 25.4789 133.655 25.7988C133.281 26.0941 132.786 26.3473 132.17 26.5609C131.555 26.7746 130.819 26.8822 129.964 26.8822C127.743 26.8822 126.052 26.3813 124.889 25.3782C123.725 24.3751 123.144 23.0712 123.144 21.4665C123.144 20.5029 123.304 19.655 123.626 18.9186C123.947 18.1837 124.514 17.5549 125.331 17.0336C126.146 16.5123 127.25 16.1176 128.641 15.8495C130.032 15.5827 131.811 15.4479 133.978 15.4479H134.579C134.579 13.0402 134.245 11.3689 133.576 10.4325C132.908 9.49606 131.972 9.02786 130.767 9.02786C130.313 9.02786 129.877 9.0755 129.463 9.16805C129.048 9.26196 128.667 9.44298 128.32 9.70975C127.972 9.97787 127.664 10.3454 127.397 10.8136C127.129 11.2818 126.915 11.8902 126.755 12.6387H124.548C124.548 11.9432 124.595 11.2341 124.689 10.5128C124.783 9.79005 125.07 9.1626 125.552 8.62635C126.033 8.09145 126.828 7.72397 127.939 7.52253C129.048 7.3211 130.259 7.22174 131.57 7.22174H131.569ZM134.578 17.2527H133.976C132.051 17.2527 130.666 17.6039 129.824 18.3075C128.981 19.0098 128.559 20.0783 128.559 21.5101C128.559 22.6452 128.794 23.504 129.262 24.0852C129.73 24.6664 130.366 24.9563 131.167 24.9563C131.782 24.9563 132.297 24.8215 132.712 24.552C133.127 24.2812 133.481 23.9831 133.775 23.6592C134.096 23.2808 134.363 22.8357 134.578 22.3213V17.2527Z" fill="#1A1A1A"/>
<path d="M58.9865 26.482H62.3973V20.2348L57.8215 24.9849L58.9865 26.4834V26.482ZM83.4215 13.2009C83.0731 11.9977 82.5382 10.9538 81.8168 10.0718C81.0941 9.18847 80.1918 8.49433 79.1084 7.9853C78.025 7.47763 76.7605 7.22311 75.3165 7.22311C74.6468 7.22311 74.0588 7.2898 73.5512 7.42318C73.0421 7.55793 72.6012 7.69131 72.2269 7.8247C71.7981 8.01252 71.4238 8.2126 71.104 8.42628V5.21692C71.104 4.22743 71.0496 3.39855 70.9434 2.72891C70.8359 2.06063 70.6426 1.52574 70.3609 1.12423C70.0805 0.722719 69.7048 0.435537 69.238 0.261322C68.7698 0.0871074 68.1873 0 67.4931 0H62.6777V1.20317H63.0792C64.2824 1.20317 65.0514 1.57066 65.3862 2.30699C65.7197 3.04332 65.8871 4.01239 65.8871 5.21556V14.2176L62.3973 17.8407V15.648C62.3973 12.813 61.6814 10.6992 60.251 9.30824C58.8191 7.91725 56.7939 7.22175 54.1725 7.22175C52.8618 7.22175 51.6505 7.32247 50.5412 7.52254C49.4306 7.72262 48.6357 8.09146 48.1539 8.62636C47.6721 9.16125 47.3849 9.79006 47.291 10.5128C47.1971 11.2355 47.1508 11.9432 47.1508 12.6387H49.3571C49.5177 11.8902 49.7314 11.2818 49.9995 10.8136C50.2663 10.3454 50.5739 9.97788 50.9223 9.70975C51.2694 9.44299 51.6505 9.26197 52.0656 9.16806C52.4793 9.07414 52.9149 9.02787 53.3695 9.02787C54.5726 9.02787 55.5091 9.49607 56.1787 10.4325C56.847 11.3689 57.1818 13.0403 57.1818 15.448H56.5802C54.4134 15.448 52.6345 15.5813 51.2435 15.8495C49.8525 16.1162 48.7487 16.5109 47.9334 17.0336C47.1168 17.5549 46.5492 18.1837 46.228 18.9186C45.9068 19.655 45.7462 20.5029 45.7462 21.4665C45.7462 23.0712 46.3274 24.3751 47.4911 25.3782C48.6548 26.3813 50.3466 26.8822 52.5665 26.8822C53.4226 26.8822 54.1575 26.7746 54.7727 26.561C55.3879 26.3473 55.882 26.0928 56.2576 25.7988C56.587 25.566 56.8687 25.302 57.1137 25.0121L57.1219 25.0202L71.2769 10.3263L71.2796 10.329C71.3599 10.2732 71.417 10.1943 71.4933 10.1344C71.6484 10.0105 71.7995 9.87989 71.9601 9.76147C72.2976 9.51376 72.6706 9.3518 73.0734 9.22522C73.5022 9.09184 73.9677 9.03875 74.4154 9.02923C74.4481 9.02923 74.4821 9.02923 74.5148 9.02923C75.2634 9.02923 75.8922 9.2293 76.4012 9.63081C76.9089 10.0323 77.324 10.5931 77.6452 11.3158C77.9664 12.0385 78.1937 12.8878 78.3271 13.8637C78.4605 14.8409 78.5272 15.9039 78.5272 17.054C78.5272 18.2041 78.4605 19.2671 78.3271 20.2443C78.1924 21.2215 77.9719 22.0695 77.6656 22.7922C77.358 23.5149 76.9633 24.0757 76.4815 24.4772C75.9997 24.8787 75.4117 25.0788 74.7162 25.0788C74.101 25.0788 73.5661 24.9454 73.1116 24.6773C72.657 24.4105 72.2827 24.1151 71.9887 23.7939C71.6403 23.4196 71.3463 22.9787 71.1054 22.4696V11.196L65.8898 16.6103V26.4807H69.3006L70.7052 24.6745H70.9053C71.1721 25.1033 71.5327 25.4776 71.9887 25.7974C72.363 26.0928 72.8448 26.3459 73.4328 26.5596C74.0207 26.7733 74.7162 26.8808 75.5193 26.8808C76.9102 26.8808 78.1338 26.6263 79.19 26.1186C80.2462 25.6109 81.1295 24.9154 81.8386 24.0321C82.5464 23.1488 83.0758 22.1062 83.4229 20.9031C83.77 19.6999 83.9442 18.4151 83.9442 17.0513C83.9442 15.6875 83.77 14.4027 83.4229 13.1995L83.4215 13.2009ZM57.1804 22.5853C56.9667 23.0998 56.6986 23.2808 56.3774 23.6592C56.0821 23.9845 55.7282 24.2812 55.3144 24.552C54.8993 24.8215 54.3848 24.9563 53.7696 24.9563C52.9666 24.9563 52.331 24.6664 51.8642 24.0852C51.3959 23.504 51.1618 22.6452 51.1618 21.5101C51.1618 20.0783 51.5838 19.0098 52.4263 18.3075C53.2688 17.6052 54.6529 17.2527 56.5788 17.2527H57.1804V22.5853Z" fill="#1A1A1A"/>
</g>
<defs>
<filter id="filter0_d_106_917" x="0" y="0" width="144.094" height="48" filterUnits="userSpaceOnUse" color-interpolation-filters="sRGB">
<feFlood flood-opacity="0" result="BackgroundImageFix"/>
<feColorMatrix in="SourceAlpha" type="matrix" values="0 0 0 0 0 0 0 0 0 0 0 0 0 0 0 0 0 0 127 0" result="hardAlpha"/>
<feOffset dy="4"/>
<feGaussianBlur stdDeviation="2"/>
<feComposite in2="hardAlpha" operator="out"/>
<feColorMatrix type="matrix" values="0 0 0 0 0 0 0 0 0 0 0 0 0 0 0 0 0 0 0.25 0"/>
<feBlend mode="normal" in2="BackgroundImageFix" result="effect1_dropShadow_106_917"/>
<feBlend mode="normal" in="SourceGraphic" in2="effect1_dropShadow_106_917" result="shape"/>
</filter>
<clipPath id="clip0_106_917">
<rect width="136.094" height="40" fill="white" transform="translate(4)"/>
</clipPath>
</defs>
</svg>
