<svg width="137" height="40" viewBox="0 0 137 40" fill="none" xmlns="http://www.w3.org/2000/svg">
<g clip-path="url(#clip0_2223_2108)">
<path d="M10.5849 34.1338L13.5439 37.0927L10.5849 39.9999L7.67773 37.0927L10.5849 34.1338Z" fill="white"/>
<path d="M20.7234 34.1338L23.6823 37.0927L20.7234 39.9999L17.8162 37.0927L20.7234 34.1338Z" fill="white"/>
<path d="M38.2619 25.1467C38.4566 24.0334 38.5559 22.8874 38.5491 21.7169C38.4865 11.1783 29.8806 2.59409 19.3419 2.5587C8.68352 2.52331 0 11.1837 0 21.8339C0 26.7773 1.87145 31.2892 4.94198 34.7041C4.98418 34.7517 5.05631 34.7571 5.10531 34.719C5.28361 34.5802 5.67423 34.2576 6.11521 33.8942L11.2219 29.8778C11.7649 31.1476 12.5775 32.31 13.65 33.275C13.846 33.4505 15.6453 34.9354 15.8794 34.7313C15.9801 34.6442 16.0808 34.5557 16.1802 34.4686C17.8312 33.0272 19.5733 31.6417 21.148 30.1241C21.0133 30.2534 22.2069 31.7792 22.3458 31.9357C22.8943 32.5481 23.6252 33.1157 24.3615 33.4737C26.9298 34.7231 30.8197 34.964 33.2138 33.4546C35.4514 32.0446 36.7797 30.2521 37.7556 27.3816C37.8604 27.0754 37.9584 26.5758 38.0523 26.1022C38.0578 26.1022 38.0632 26.1022 38.07 26.1022C38.1422 25.7878 38.2048 25.4693 38.2606 25.1481C38.2606 25.1481 38.2606 25.1481 38.2606 25.1467H38.2619ZM18.2667 29.9132C17.284 30.625 16.0822 28.8651 15.746 28.2091C15.0941 26.9365 15.007 25.3346 15.3268 23.9191C15.7991 21.8271 17.7223 20.8077 19.2848 19.5841C19.429 19.4712 19.9313 19.1704 19.9313 18.9512V24.0783C19.9313 25.6844 20.0973 27.0754 20.4866 28.3071C20.4866 28.3071 18.2681 29.9132 18.2667 29.9132ZM31.3696 29.1414C29.7513 30.3324 27.4225 30.2384 25.8845 28.9509C24.3193 27.6402 24.3057 25.8817 24.3057 24.0103C24.3057 23.8823 24.3057 23.7911 24.3057 23.7258C24.3057 23.7299 24.3057 23.7326 24.3057 23.7353C24.3057 23.7217 24.3057 23.6169 24.3057 23.3093V17.2404H22.373C22.4574 17.1111 22.7146 16.8525 23.2318 16.078C24.3574 14.3903 24.3411 11.8071 23.5299 9.90567C23.2999 9.36805 22.9909 8.56367 22.5268 8.18394C22.5853 9.38438 22.4315 10.5086 21.6857 11.5144C19.8373 14.046 18.1238 14.4774 15.6902 16.4101C12.979 18.5633 11.2314 20.7941 10.6026 24.1477C10.3603 25.438 10.3767 26.7419 10.6325 27.9913L7.43679 30.5488C5.6334 28.107 4.56361 25.095 4.56361 21.8339C4.56361 13.5778 11.4002 6.88821 19.7094 7.12776C27.5736 7.35505 33.9052 13.8119 33.9869 21.6788C34.0005 22.9895 33.8385 24.2621 33.5282 25.4748C32.9783 27.0182 32.585 28.2472 31.3709 29.1401L31.3696 29.1414Z" fill="white"/>
<path d="M45.4144 30.3711C46.5182 30.3711 47.3716 30.6637 47.9746 31.2503C48.5775 31.8369 48.8783 32.7271 48.8783 33.9207V38.4843H47.441L46.849 37.7235H46.7646C46.6407 37.9032 46.4828 38.061 46.2909 38.1972C46.133 38.321 45.9248 38.4285 45.6648 38.5184C45.4049 38.6082 45.0959 38.6531 44.7352 38.6531C43.8002 38.6531 43.087 38.4421 42.597 38.0189C42.107 37.5969 41.8621 37.0471 41.8621 36.3706C41.8621 35.965 41.9301 35.6071 42.0649 35.2967C42.1996 34.9864 42.4391 34.7224 42.7835 34.5019C43.1278 34.2814 43.592 34.1154 44.1786 34.0037C44.7638 33.8908 45.5138 33.835 46.427 33.835H46.6802C46.6802 32.821 46.5386 32.1173 46.2569 31.7226C45.9752 31.3279 45.5805 31.1306 45.0741 31.1306C44.8822 31.1306 44.6999 31.1496 44.5243 31.1904C44.3501 31.2299 44.1895 31.3061 44.0425 31.4191C43.8955 31.5321 43.7662 31.6872 43.6532 31.8846C43.5402 32.0819 43.4504 32.3378 43.3824 32.6536H42.4528C42.4528 32.361 42.4718 32.0615 42.5113 31.758C42.5508 31.4531 42.6719 31.1891 42.8747 30.9632C43.0775 30.7386 43.4123 30.5834 43.8805 30.4977C44.3473 30.4133 44.8577 30.3711 45.4103 30.3711H45.4144ZM46.6829 34.5958H46.4298C45.6186 34.5958 45.036 34.7442 44.6808 35.0395C44.3256 35.3362 44.1486 35.7854 44.1486 36.3883C44.1486 36.866 44.2466 37.2281 44.444 37.4731C44.6413 37.7181 44.9095 37.8406 45.247 37.8406C45.5056 37.8406 45.7234 37.7834 45.8976 37.6704C46.0718 37.5561 46.2215 37.4309 46.3454 37.2948C46.4801 37.1355 46.5931 36.9477 46.6829 36.7313V34.5958Z" fill="white"/>
<path d="M59.3257 32.4831C59.0331 31.8638 58.7786 31.4242 58.5649 31.1642C58.3512 30.9056 58.1022 30.7641 57.8218 30.7423V30.4047C57.8667 30.4047 57.9633 30.3993 58.109 30.3884C58.2546 30.3775 58.3676 30.3721 58.4465 30.3721C58.7854 30.3721 59.1066 30.4007 59.4101 30.4565C59.715 30.5123 60.0022 30.6171 60.2717 30.7695C60.5425 30.9219 60.7957 31.1356 61.0325 31.4119C61.2693 31.6882 61.4885 32.0462 61.6913 32.4858L63.1789 35.7305L65.4777 30.5408H66.3896L62.7896 38.6541H62.1812L59.3244 32.4844L59.3257 32.4831Z" fill="white"/>
<path d="M79.5742 37.8923C80.1594 37.8923 80.6358 37.7575 81.0019 37.4867C81.368 37.2158 81.6974 36.8837 81.9914 36.489L82.5154 36.8783C82.3915 37.0702 82.2418 37.2703 82.0676 37.4785C81.8934 37.6868 81.6784 37.8787 81.4252 38.0529C81.172 38.2285 80.8726 38.3714 80.5296 38.4843C80.1853 38.5973 79.7838 38.6531 79.321 38.6531C78.7235 38.6531 78.1859 38.5483 77.7068 38.3401C77.2277 38.1318 76.8194 37.8419 76.4819 37.469C76.1443 37.0974 75.8843 36.6605 75.7047 36.1597C75.5237 35.6588 75.4338 35.1089 75.4338 34.5114C75.4338 33.835 75.5291 33.2388 75.721 32.7203C75.9129 32.2017 76.1743 31.7716 76.5063 31.4273C76.8384 31.0843 77.2304 30.8216 77.6809 30.6419C78.1314 30.4623 78.6214 30.3711 79.1509 30.3711C79.6803 30.3711 80.1703 30.4528 80.6222 30.6161C81.074 30.7794 81.4647 31.0081 81.7968 31.3007C82.1289 31.5933 82.3915 31.9486 82.5821 32.3664C82.774 32.7829 82.8693 33.2456 82.8693 33.7519C82.8693 33.8758 82.8666 34.0024 82.8611 34.1317C82.8557 34.261 82.8475 34.3767 82.8352 34.4788C82.823 34.6026 82.8121 34.7156 82.8012 34.8163H77.7136C77.7136 35.9324 77.8851 36.7231 78.2294 37.1913C78.5738 37.6595 79.0216 37.8923 79.5728 37.8923H79.5742ZM80.5881 34.0555C80.5881 33.492 80.5514 33.0238 80.4779 32.6522C80.4044 32.2807 80.3064 31.9826 80.1826 31.7566C80.0587 31.5307 79.909 31.3701 79.7348 31.2748C79.5592 31.1796 79.3659 31.1306 79.1509 31.1306C78.959 31.1306 78.7766 31.1782 78.6024 31.2748C78.4268 31.3701 78.2757 31.5307 78.1464 31.7566C78.0171 31.9826 77.9123 32.2807 77.8334 32.6522C77.7544 33.0238 77.715 33.492 77.715 34.0555H80.5881Z" fill="white"/>
<path d="M96.8486 31.1823C96.4879 31.1823 96.1749 31.2326 95.9108 31.3347C95.6468 31.4368 95.4399 31.5607 95.2943 31.7076C95.3052 31.7757 95.3215 31.8546 95.3446 31.9458C95.3678 32.0248 95.3841 32.1214 95.395 32.2344C95.4059 32.3473 95.4113 32.4726 95.4113 32.6087V38.4843H93.2146V32.738C93.2146 32.4903 93.201 32.2616 93.1724 32.0534C93.1438 31.8451 93.0907 31.6641 93.0118 31.513C92.9329 31.3606 92.8144 31.2449 92.6566 31.1659C92.4987 31.087 92.2959 31.0475 92.0482 31.0475H91.8794V30.5399H93.5521C93.9346 30.5399 94.2367 30.5875 94.4559 30.6841C94.6764 30.7794 94.8479 30.94 94.9717 31.1659C95.0724 31.0761 95.1936 30.9836 95.3351 30.8869C95.4767 30.7903 95.6454 30.7073 95.8414 30.6338C96.0388 30.5603 96.2661 30.499 96.526 30.4473C96.7846 30.397 97.0895 30.3711 97.4393 30.3711C98.4982 30.3711 99.2985 30.6161 99.8388 31.1061C100.379 31.596 100.65 32.3882 100.65 33.4811V38.4843H98.4533V33.4416C98.4533 32.6155 98.3008 32.0316 97.9973 31.6927C97.6925 31.3538 97.31 31.1836 96.8472 31.1836L96.8486 31.1823Z" fill="white"/>
<path d="M111.215 32.7362C111.215 32.2285 111.144 31.8202 111.004 31.5112C110.862 31.2009 110.538 31.0458 110.032 31.0458H109.863V30.5381H111.891C112.184 30.5381 112.429 30.5748 112.626 30.6483C112.823 30.7218 112.981 30.843 113.1 31.0117C113.218 31.1805 113.3 31.4064 113.345 31.6882C113.39 31.9699 113.413 32.3197 113.413 32.7362V35.559C113.413 36.4274 113.537 37.033 113.784 37.376C114.032 37.7204 114.387 37.8919 114.849 37.8919C115.107 37.8919 115.33 37.8361 115.517 37.7231C115.702 37.6101 115.857 37.4863 115.982 37.3515C116.128 37.1936 116.259 37.0085 116.372 36.7935V30.5394H118.568V38.4839H117.131L116.539 37.7231H116.455C116.286 37.9027 116.099 38.0606 115.897 38.1967C115.716 38.3206 115.496 38.4281 115.238 38.5179C114.978 38.6078 114.68 38.6527 114.342 38.6527C113.283 38.6527 112.497 38.4077 111.985 37.9177C111.472 37.4277 111.216 36.6356 111.216 35.5427V32.7375L111.215 32.7362Z" fill="white"/>
<path d="M132.799 37.8923C133.385 37.8923 133.861 37.7575 134.227 37.4867C134.593 37.2158 134.923 36.8837 135.215 36.489L135.739 36.8783C135.615 37.0702 135.466 37.2703 135.291 37.4785C135.116 37.6868 134.902 37.8787 134.649 38.0529C134.396 38.2285 134.096 38.3714 133.753 38.4843C133.409 38.5973 133.006 38.6531 132.545 38.6531C131.947 38.6531 131.41 38.5483 130.931 38.3401C130.452 38.1318 130.043 37.8419 129.706 37.469C129.367 37.0974 129.108 36.6605 128.929 36.1597C128.749 35.6588 128.658 35.1089 128.658 34.5114C128.658 33.835 128.753 33.2388 128.945 32.7203C129.137 32.2017 129.398 31.7716 129.73 31.4273C130.062 31.0843 130.454 30.8216 130.905 30.6419C131.355 30.4623 131.845 30.3711 132.376 30.3711C132.907 30.3711 133.396 30.4528 133.846 30.6161C134.297 30.7794 134.689 31.0081 135.021 31.3007C135.353 31.5933 135.615 31.9486 135.806 32.3664C135.998 32.7829 136.093 33.2456 136.093 33.7519C136.093 33.8758 136.09 34.0024 136.085 34.1317C136.08 34.261 136.07 34.3767 136.059 34.4788C136.048 34.6026 136.036 34.7156 136.025 34.8163H130.937C130.937 35.9324 131.109 36.7231 131.453 37.1913C131.796 37.6595 132.244 37.8923 132.797 37.8923H132.799ZM133.813 34.0555C133.813 33.492 133.777 33.0238 133.703 32.6522C133.63 32.2807 133.532 31.9826 133.408 31.7566C133.284 31.5307 133.134 31.3701 132.96 31.2748C132.786 31.1796 132.591 31.1306 132.377 31.1306C132.186 31.1306 132.003 31.1782 131.828 31.2748C131.653 31.3701 131.501 31.5307 131.372 31.7566C131.242 31.9826 131.138 32.2807 131.059 32.6522C130.98 33.0238 130.94 33.492 130.94 34.0555H133.813Z" fill="white"/>
<path d="M90.0133 7.22168C92.6347 7.22168 94.6613 7.91718 96.0918 9.30817C97.5222 10.6992 98.2381 12.8129 98.2381 15.648V26.4819H94.8273L93.4227 24.6758H93.2227C92.9273 25.1046 92.553 25.4789 92.0998 25.7987C91.7255 26.094 91.2301 26.3472 90.6149 26.5609C89.9997 26.7746 89.2634 26.8821 88.4086 26.8821C86.1874 26.8821 84.497 26.3812 83.3333 25.3781C82.1695 24.375 81.5884 23.0711 81.5884 21.4665C81.5884 20.5028 81.749 19.6549 82.0702 18.9186C82.3914 18.1836 82.959 17.5548 83.7756 17.0335C84.5909 16.5122 85.6947 16.1175 87.0857 15.8494C88.4767 15.5826 90.2556 15.4479 92.4224 15.4479H93.0239C93.0239 13.0402 92.6891 11.3688 92.0208 10.4324C91.3526 9.496 90.4162 9.0278 89.2116 9.0278C88.757 9.0278 88.3215 9.07543 87.9077 9.16799C87.4926 9.2619 87.1115 9.44292 86.7645 9.70968C86.416 9.97781 86.1084 10.3453 85.8417 10.8135C85.5735 11.2817 85.3599 11.8901 85.1992 12.6387H82.993C82.993 11.9432 83.0393 11.2341 83.1332 10.5127C83.2271 9.78999 83.5143 9.16254 83.9961 8.62629C84.4779 8.09139 85.2727 7.72391 86.3834 7.52247C87.4926 7.32104 88.704 7.22168 90.0147 7.22168H90.0133ZM93.0226 17.2526H92.421C90.4951 17.2526 89.1109 17.6038 88.2684 18.3075C87.4259 19.0098 87.004 20.0782 87.004 21.51C87.004 22.6451 87.2381 23.504 87.7063 24.0851C88.1745 24.6663 88.8101 24.9562 89.6118 24.9562C90.227 24.9562 90.7415 24.8215 91.1566 24.552C91.5717 24.2811 91.9256 23.9831 92.2196 23.6591C92.5408 23.2807 92.8075 22.8357 93.0226 22.3212V17.2526Z" fill="white"/>
<path d="M110.477 29.0897C110.075 30.1867 109.648 31.0823 109.193 31.7778C108.739 32.4733 108.257 33.0218 107.749 33.4233C107.24 33.8248 106.686 34.1052 106.085 34.2658C105.483 34.4264 104.834 34.5067 104.138 34.5067H102.534V33.1021C103.229 33.1021 103.863 33.0422 104.439 32.9211C105.014 32.8 105.543 32.5931 106.023 32.2991C106.505 32.0037 106.933 31.6104 107.307 31.115C107.681 30.6195 108.015 29.9839 108.31 29.2095L109.152 27.0427L101.931 11.2341C101.047 9.28231 99.8048 8.21117 98.1987 8.0247V7.22168H101.729C102.932 7.22168 103.99 7.50886 104.899 8.08459C105.808 8.66031 106.49 9.44292 106.945 10.4324L111.559 20.5437L116.455 7.62319H118.581L110.475 29.0897H110.477Z" fill="white"/>
<path d="M127.569 7.22168C130.19 7.22168 132.217 7.91718 133.647 9.30817C135.078 10.6992 135.794 12.8129 135.794 15.648V26.4819H132.383L130.978 24.6758H130.778C130.483 25.1046 130.108 25.4789 129.655 25.7987C129.281 26.094 128.786 26.3472 128.17 26.5609C127.555 26.7746 126.819 26.8821 125.964 26.8821C123.743 26.8821 122.052 26.3812 120.889 25.3781C119.725 24.375 119.144 23.0711 119.144 21.4665C119.144 20.5028 119.304 19.6549 119.626 18.9186C119.947 18.1836 120.514 17.5548 121.331 17.0335C122.146 16.5122 123.25 16.1175 124.641 15.8494C126.032 15.5826 127.811 15.4479 129.978 15.4479H130.579C130.579 13.0402 130.245 11.3688 129.576 10.4324C128.908 9.496 127.972 9.0278 126.767 9.0278C126.312 9.0278 125.877 9.07543 125.463 9.16799C125.048 9.2619 124.667 9.44292 124.32 9.70968C123.971 9.97781 123.664 10.3453 123.397 10.8135C123.129 11.2817 122.915 11.8901 122.755 12.6387H120.548C120.548 11.9432 120.595 11.2341 120.689 10.5127C120.783 9.78999 121.07 9.16254 121.552 8.62629C122.033 8.09139 122.828 7.72391 123.939 7.52247C125.048 7.32104 126.259 7.22168 127.57 7.22168H127.569ZM130.578 17.2526H129.976C128.051 17.2526 126.666 17.6038 125.824 18.3075C124.981 19.0098 124.559 20.0782 124.559 21.51C124.559 22.6451 124.794 23.504 125.262 24.0851C125.73 24.6663 126.366 24.9562 127.167 24.9562C127.782 24.9562 128.297 24.8215 128.712 24.552C129.127 24.2811 129.481 23.9831 129.775 23.6591C130.096 23.2807 130.363 22.8357 130.578 22.3212V17.2526Z" fill="white"/>
<path d="M54.9864 26.482H58.3972V20.2348L53.8214 24.9849L54.9864 26.4834V26.482ZM79.4214 13.2009C79.073 11.9977 78.5381 10.9538 77.8167 10.0718C77.094 9.18847 76.1916 8.49433 75.1082 7.9853C74.0248 7.47763 72.7604 7.22311 71.3163 7.22311C70.6467 7.22311 70.0587 7.2898 69.5511 7.42318C69.042 7.55793 68.601 7.69131 68.2267 7.8247C67.798 8.01252 67.4237 8.2126 67.1039 8.42628V5.21692C67.1039 4.22743 67.0494 3.39855 66.9433 2.72891C66.8358 2.06063 66.6425 1.52574 66.3607 1.12423C66.0804 0.722719 65.7047 0.435537 65.2379 0.261322C64.7697 0.0871074 64.1871 0 63.493 0H58.6776V1.20317H59.0791C60.2823 1.20317 61.0513 1.57066 61.3861 2.30699C61.7195 3.04332 61.887 4.01239 61.887 5.21556V14.2176L58.3972 17.8407V15.648C58.3972 12.813 57.6813 10.6992 56.2508 9.30824C54.819 7.91725 52.7938 7.22175 50.1724 7.22175C48.8617 7.22175 47.6503 7.32247 46.5411 7.52254C45.4305 7.72262 44.6356 8.09146 44.1538 8.62636C43.672 9.16125 43.3848 9.79006 43.2909 10.5128C43.197 11.2355 43.1507 11.9432 43.1507 12.6387H45.357C45.5176 11.8902 45.7313 11.2818 45.9994 10.8136C46.2662 10.3454 46.5737 9.97788 46.9222 9.70975C47.2692 9.44299 47.6503 9.26197 48.0655 9.16806C48.4792 9.07414 48.9148 9.02787 49.3694 9.02787C50.5725 9.02787 51.5089 9.49607 52.1786 10.4325C52.8468 11.3689 53.1817 13.0403 53.1817 15.448H52.5801C50.4133 15.448 48.6344 15.5813 47.2434 15.8495C45.8524 16.1162 44.7486 16.5109 43.9333 17.0336C43.1167 17.5549 42.5491 18.1837 42.2279 18.9186C41.9067 19.655 41.7461 20.5029 41.7461 21.4665C41.7461 23.0712 42.3273 24.3751 43.491 25.3782C44.6547 26.3813 46.3465 26.8822 48.5663 26.8822C49.4224 26.8822 50.1574 26.7746 50.7726 26.561C51.3878 26.3473 51.8819 26.0928 52.2575 25.7988C52.5869 25.566 52.8686 25.302 53.1136 25.0121L53.1218 25.0202L67.2767 10.3263L67.2795 10.329C67.3598 10.2732 67.4169 10.1943 67.4931 10.1344C67.6483 10.0105 67.7994 9.87989 67.96 9.76147C68.2975 9.51376 68.6704 9.3518 69.0733 9.22522C69.5021 9.09184 69.9675 9.03875 70.4153 9.02923C70.448 9.02923 70.482 9.02923 70.5147 9.02923C71.2633 9.02923 71.8921 9.2293 72.4011 9.63081C72.9088 10.0323 73.3239 10.5931 73.6451 11.3158C73.9663 12.0385 74.1936 12.8878 74.327 13.8637C74.4604 14.8409 74.5271 15.9039 74.5271 17.054C74.5271 18.2041 74.4604 19.2671 74.327 20.2443C74.1922 21.2215 73.9718 22.0695 73.6655 22.7922C73.3579 23.5149 72.9632 24.0757 72.4814 24.4772C71.9996 24.8787 71.4116 25.0788 70.7161 25.0788C70.1009 25.0788 69.566 24.9454 69.1114 24.6773C68.6568 24.4105 68.2825 24.1151 67.9886 23.7939C67.6401 23.4196 67.3461 22.9787 67.1052 22.4696V11.196L61.8897 16.6103V26.4807H65.3005L66.7051 24.6745H66.9052C67.1719 25.1033 67.5326 25.4776 67.9886 25.7974C68.3629 26.0928 68.8447 26.3459 69.4326 26.5596C70.0206 26.7733 70.7161 26.8808 71.5191 26.8808C72.9101 26.8808 74.1337 26.6263 75.1899 26.1186C76.2461 25.6109 77.1294 24.9154 77.8385 24.0321C78.5463 23.1488 79.0757 22.1062 79.4228 20.9031C79.7698 19.6999 79.9441 18.4151 79.9441 17.0513C79.9441 15.6875 79.7698 14.4027 79.4228 13.1995L79.4214 13.2009ZM53.1803 22.5853C52.9666 23.0998 52.6985 23.2808 52.3773 23.6592C52.0819 23.9845 51.7281 24.2812 51.3143 24.552C50.8992 24.8215 50.3847 24.9563 49.7695 24.9563C48.9665 24.9563 48.3309 24.6664 47.864 24.0852C47.3958 23.504 47.1617 22.6452 47.1617 21.5101C47.1617 20.0783 47.5836 19.0098 48.4261 18.3075C49.2686 17.6052 50.6528 17.2527 52.5787 17.2527H53.1803V22.5853Z" fill="white"/>
</g>
<defs>
<clipPath id="clip0_2223_2108">
<rect width="136.094" height="40" fill="white"/>
</clipPath>
</defs>
</svg>
